M48
; DRILL file {KiCad 7.0.5} date Sat Mar 23 17:23:33 2024
; FORMAT={-:-/ absolute / metric / decimal}
; #@! TF.CreationDate,2024-03-23T17:23:33+04:00
; #@! TF.GenerationSoftware,Kicad,Pcbnew,7.0.5
; #@! TF.FileFunction,Plated,1,2,PTH
FMAT,2
METRIC
; #@! TA.AperFunction,Plated,PTH,ComponentDrill
T1C0.800
; #@! TA.AperFunction,Plated,PTH,ComponentDrill
T2C1.000
; #@! TA.AperFunction,Plated,PTH,ComponentDrill
T3C1.010
; #@! TA.AperFunction,Plated,PTH,ComponentDrill
T4C1.100
; #@! TA.AperFunction,Plated,PTH,ComponentDrill
T5C1.200
; #@! TA.AperFunction,Plated,PTH,ComponentDrill
T6C1.400
; #@! TA.AperFunction,Plated,PTH,ComponentDrill
T7C1.500
; #@! TA.AperFunction,Plated,PTH,ComponentDrill
T8C1.520
%
G90
G05
T1
X76.2Y86.36
X76.2Y101.6
X82.55Y88.9
X82.55Y107.95
X88.9Y114.3
X88.9Y116.84
X88.9Y119.38
X88.9Y121.92
X96.52Y114.3
X96.52Y116.84
X96.52Y119.38
X96.52Y121.92
X97.79Y88.9
X97.79Y107.95
X107.95Y92.71
X107.95Y107.95
X114.3Y114.3
X114.3Y129.54
X127.0Y114.3
X127.0Y129.54
X127.0Y133.35
X127.0Y148.59
T2
X69.85Y66.2
X69.85Y76.2
X82.55Y132.2
X82.55Y139.7
X85.25Y94.96
X85.25Y101.6
X94.1Y133.35
X94.1Y171.45
X95.25Y94.96
X95.25Y101.6
X101.6Y133.35
X101.6Y171.45
X104.3Y114.3
X104.3Y124.3
X127.0Y95.25
X127.0Y105.25
T3
X119.45Y175.3
X120.65Y165.1
T4
X76.2Y69.85
X76.2Y80.01
X101.6Y82.55
X104.14Y82.55
X106.68Y82.55
X107.95Y63.5
X107.95Y73.66
X114.3Y82.55
X114.3Y92.71
T5
X68.7Y50.8
X69.85Y114.3
X76.2Y50.8
X76.2Y156.215
X76.2Y186.695
X77.35Y114.3
X85.09Y38.1
X87.55Y147.4
X87.55Y152.4
X95.25Y147.4
X95.25Y152.4
X105.41Y38.1
X107.95Y50.8
X114.3Y135.89
X114.3Y156.21
X115.45Y50.8
X125.85Y50.8
X133.35Y50.8
T6
X69.85Y129.54
X69.85Y134.62
X69.85Y139.7
X69.85Y144.78
T7
X125.45Y69.85
X133.35Y69.85
T8
X82.55Y19.05
X83.82Y190.5
X85.09Y50.8
X85.09Y71.12
X87.63Y19.05
X88.9Y50.8
X88.9Y71.12
X88.9Y190.5
X92.71Y50.8
X96.52Y50.8
X96.52Y71.12
T0
M30
